<?xml version="1.0" encoding="UTF-8" standalone="no"?>
<!DOCTYPE svg PUBLIC "-//W3C//DTD SVG 1.1//EN"
 "http://www.w3.org/Graphics/SVG/1.1/DTD/svg11.dtd">
<!-- Generated by graphviz version 2.44.1 (20200629.0846)
 -->
<!-- Title: main Pages: 1 -->
<svg width="221pt" height="28pt"
 viewBox="0.00 0.00 221.00 28.00" xmlns="http://www.w3.org/2000/svg" xmlns:xlink="http://www.w3.org/1999/xlink">
<g id="graph0" class="graph" transform="scale(1 1) rotate(0) translate(4 24)">
<title>main</title>
<polygon fill="white" stroke="transparent" points="-4,4 -4,-24 217,-24 217,4 -4,4"/>
<!-- Node1 -->
<g id="node1" class="node">
<title>Node1</title>
<g id="a_node1"><a xlink:title="Main function.">
<polygon fill="#bfbfbf" stroke="black" points="0,-0.5 0,-19.5 38,-19.5 38,-0.5 0,-0.5"/>
<text text-anchor="middle" x="19" y="-7.5" font-family="Helvetica,sans-Serif" font-size="10.00">main</text>
</a>
</g>
</g>
<!-- Node2 -->
<g id="node2" class="node">
<title>Node2</title>
<g id="a_node2"><a xlink:href="../../dd/d47/namespacemath.html#afcd07701d73ed65cd616bcba02737f3d" target="_top" xlink:title="This function calculates a raised to exponent b under modulo c using modular exponentiation.">
<polygon fill="white" stroke="black" points="74,-0.5 74,-19.5 145,-19.5 145,-0.5 74,-0.5"/>
<text text-anchor="middle" x="109.5" y="-7.5" font-family="Helvetica,sans-Serif" font-size="10.00">math::power</text>
</a>
</g>
</g>
<!-- Node1&#45;&gt;Node2 -->
<g id="edge1" class="edge">
<title>Node1&#45;&gt;Node2</title>
<path fill="none" stroke="midnightblue" d="M38.34,-10C45.77,-10 54.7,-10 63.67,-10"/>
<polygon fill="midnightblue" stroke="midnightblue" points="63.73,-13.5 73.73,-10 63.73,-6.5 63.73,-13.5"/>
</g>
<!-- Node3 -->
<g id="node3" class="node">
<title>Node3</title>
<g id="a_node3"><a xlink:href="../../d7/d35/matrix__exponentiation_8cpp.html#ad8389ed58fd0ec66df248014775ad1fa" target="_top" xlink:title=" ">
<polygon fill="white" stroke="black" points="181,-0.5 181,-19.5 213,-19.5 213,-0.5 181,-0.5"/>
<text text-anchor="middle" x="197" y="-7.5" font-family="Helvetica,sans-Serif" font-size="10.00">ans</text>
</a>
</g>
</g>
<!-- Node2&#45;&gt;Node3 -->
<g id="edge2" class="edge">
<title>Node2&#45;&gt;Node3</title>
<path fill="none" stroke="midnightblue" d="M145.28,-10C153.79,-10 162.75,-10 170.73,-10"/>
<polygon fill="midnightblue" stroke="midnightblue" points="170.86,-13.5 180.86,-10 170.86,-6.5 170.86,-13.5"/>
</g>
</g>
</svg>
